<svg xmlns="http://www.w3.org/2000/svg" width="98.061" height="89.375" viewBox="0 0 98.061 89.375"><defs><style>.cls-1 { fill: #fff; fill-rule: evenodd; }</style></defs><path class="cls-1" d="M985.557 684.023a7.1 7.1 0 0 0-7.026 5.757h-.183l-23.064 25.962h11.532l15.953-17.936a7.185 7.185 0 0 0 2.788.635 7.276 7.276 0 0 0 2.8-.635l15.939 17.936h11.55l-23.08-25.962h-.185a7.069 7.069 0 0 0-7.024-5.757zm-41.8 37.48a5.763 5.763 0 0 0-5.775 5.775v2.883a5.7 5.7 0 0 0 5.324 5.678l9.094 31.806c2.887 5.771 5.775 5.771 8.644 5.771h51.919c2.89 0 5.75 0 8.64-5.771l9.11-31.806a5.7 5.7 0 0 0 5.31-5.678v-2.883a5.75 5.75 0 0 0-5.76-5.775h-86.509zm16.221 14.418h1.434a7.424 7.424 0 0 1 7.026 5.407l4.055 17.941a4.4 4.4 0 0 1-4.59 5.489h-1.452a7.489 7.489 0 0 1-7.025-5.489l-4.055-17.941c-.674-3 1.408-5.407 4.607-5.407zm27.034 0a5.751 5.751 0 0 1 5.757 5.775v17.304a5.766 5.766 0 0 1-11.532 0v-17.3a5.764 5.764 0 0 1 5.775-5.775zm25.581 0h1.45c3.2 0 5.27 2.408 4.59 5.407l-4.05 17.941a7.49 7.49 0 0 1-7.03 5.489h-1.45a4.4 4.4 0 0 1-4.59-5.489l4.06-17.941a7.411 7.411 0 0 1 7.02-5.407z" transform="translate(-937.969 -684.031)"/></svg>