<svg xmlns="http://www.w3.org/2000/svg" width="95" height="81.062" viewBox="0 0 95 81.062"><defs><style>.cls-1 { fill: #fff; fill-rule: evenodd; }</style></defs><path class="cls-1" d="M589.154 688.973a11.158 11.158 0 0 0-11.175 11.187v41.914a11.147 11.147 0 0 0 11.175 11.178h25.146v8.376h-11.175a2.8 2.8 0 0 0-2.8 2.8v5.592h50.306v-5.592a2.8 2.8 0 0 0-2.8-2.8h-11.168v-8.376h25.145a11.147 11.147 0 0 0 11.175-11.178v-41.914a11.157 11.157 0 0 0-11.175-11.187h-72.654zm2.8 11.187h67.06a2.781 2.781 0 0 1 2.8 2.785v36.336a2.789 2.789 0 0 1-2.8 2.793h-67.06a2.8 2.8 0 0 1-2.8-2.793v-36.336a2.79 2.79 0 0 1 2.8-2.785z" transform="translate(-577.969 -688.969)"/></svg>