<svg xmlns="http://www.w3.org/2000/svg" width="77.188" height="107.969" viewBox="0 0 77.188 107.969"><defs><style>.cls-1 { fill: #fff; fill-rule: evenodd; }</style></defs><path class="cls-1" d="M307.69 701.116l-6.569 10.544-32.789-20.414 6.568-10.546a9.937 9.937 0 0 1 13.686-3.185l15.927 9.916a9.937 9.937 0 0 1 3.177 13.685zm-39.421 63.192l-32.717-20.408 30.284-48.542 32.719 20.426zm4.417-56.66a3.172 3.172 0 0 0-4.4.871l-21.53 34.487a3.154 3.154 0 0 0 1.162 4.327 3.2 3.2 0 0 0 4.405-.839l21.525-34.494a3.2 3.2 0 0 0-1.162-4.352zm11.854 7.4a3.189 3.189 0 0 0-4.405.868l-21.535 34.5a3.3 3.3 0 0 0 5.579 3.478l21.535-34.482a3.217 3.217 0 0 0-1.174-4.368zm-33.731 61.2a19.714 19.714 0 0 0-18.209-11.348l-.6-15.214 32.69 20.4zm-9.22-5.506a15.5 15.5 0 0 1 6.016 6.922l-14.267 6.327-.609-15.592a15.546 15.546 0 0 1 8.86 2.337z" transform="translate(-232 -676.031)"/></svg>